<?xml version="1.0" encoding="utf-8"?>
<!-- Generator: Adobe Illustrator 22.1.0, SVG Export Plug-In . SVG Version: 6.00 Build 0)  -->
<svg version="1.1" id="Capa_1" xmlns="http://www.w3.org/2000/svg" xmlns:xlink="http://www.w3.org/1999/xlink" x="0px" y="0px"
	 viewBox="0 0 1920 1250" style="enable-background:new 0 0 1920 1250;" xml:space="preserve">
<style type="text/css">
	.st0{fill:#FFFFFF;}
</style>
<g>
	<path class="st0" d="M979,233c46.7,0,92,9.1,134.7,27.2c41.2,17.4,78.2,42.4,110,74.2s56.8,68.8,74.2,110
		c18,42.6,27.2,87.9,27.2,134.7s-9.1,92-27.2,134.7c-17.4,41.2-42.4,78.2-74.2,110c-31.8,31.8-68.8,56.8-110,74.2
		c-42.6,18-87.9,27.2-134.7,27.2c-46.7,0-92-9.1-134.7-27.2c-41.2-17.4-78.2-42.4-110-74.2s-56.8-68.8-74.2-110
		C642.1,671,633,625.7,633,579s9.1-92,27.2-134.7c17.4-41.2,42.4-78.2,74.2-110s68.8-56.8,110-74.2C887,242.1,932.3,233,979,233
		 M979,173c-224.2,0-406,181.8-406,406s181.8,406,406,406s406-181.8,406-406S1203.2,173,979,173L979,173z"/>
</g>
<g>
	<g>
		<path class="st0" d="M1100.7,538.7c8.4,0,15.2-6.8,15.2-15.2s-6.8-15.2-15.2-15.2h-32.2c-8.4,0-15.2,6.8-15.2,15.2
			s6.8,15.2,15.2,15.2H1100.7z M801.3,593.4c0,8.4,6.8,15.2,15.2,15.2h258.7c8.4,0,15.2-6.8,15.2-15.2s-6.8-15.2-15.2-15.2H816.5
			C808.1,578.2,801.3,585,801.3,593.4z M804.2,440.9h52l21.2,67.3H857c-8.4,0-15.2,6.8-15.2,15.2s6.8,15.2,15.2,15.2h166.1
			c8.4,0,15.2-6.8,15.2-15.2s-6.8-15.2-15.2-15.2h-114l-27.4-87l0,0c-1.9-6.2-7.7-10.7-14.5-10.7h-63.1c-8.4,0-15.2,6.8-15.2,15.2
			C789,434.1,795.8,440.9,804.2,440.9z M1209.5,450.9c-2.4-1.1-4.9-1.6-7.4-1.4l-198.7,0.2c-8.4,0-15.2,6.8-15.2,15.2
			c0,8.4,6.8,15.2,15.2,15.2l175.6-0.2l-80.7,170.9H868.8c-8.4,0-15.2,6.8-15.2,15.2s6.8,15.2,15.2,15.2H1108c6.5,0,12-4,14.2-9.7
			l94.6-200.4C1220.3,463.5,1217.1,454.4,1209.5,450.9z M823.5,650.7h-32.2c-8.4,0-15.2,6.8-15.2,15.2s6.8,15.2,15.2,15.2h32.2
			c8.4,0,15.2-6.8,15.2-15.2S831.9,650.7,823.5,650.7z M1042,697.1c-13.8,0-25,11.2-25,25s11.2,25,25,25s25-11.2,25-25
			C1067,708.2,1055.8,697.1,1042,697.1z M960,697.1c-13.8,0-25,11.2-25,25s11.2,25,25,25s25-11.2,25-25
			C985,708.2,973.8,697.1,960,697.1z"/>
	</g>
</g>
</svg>
